<svg width="100" height="67" viewBox="0 0 100 67" fill="none" xmlns="http://www.w3.org/2000/svg">
<g clip-path="url(#clip0_60_8872)">
<g clip-path="url(#clip1_60_8872)">
<path d="M10.8397 23.4247V31.0208H3.36172V23.4247H0V42.1655H3.36172V34.3597H10.8397V42.1655H14.2015V23.4247H10.8397ZM88.6355 26.7635H92.3782C93.9139 26.7635 95.1575 27.9989 95.1575 29.5227C95.1563 29.8864 95.0835 30.2463 94.9431 30.5819C94.8028 30.9175 94.5977 31.2221 94.3396 31.4785C94.0815 31.7348 93.7755 31.9377 93.4389 32.0757C93.1024 32.2137 92.7419 32.2841 92.3782 32.2827H88.6355V26.7635ZM85.2756 23.4247V42.1655H88.6364V33.8258L95.6337 42.1655H100.002L94.2665 35.334C97.1456 34.4183 98.9258 31.5611 98.4652 28.595C98.0046 25.6289 95.4396 23.4357 92.4176 23.4247H85.2701H85.2756ZM53.4826 23.3688V35.063L45.3223 23.3688H42.6374V42.1078H46V30.3606L54.2006 42.1088H56.8397V23.3688H53.4826ZM22.0998 32.7827C22.1017 29.3166 24.9322 26.508 28.4222 26.5089C31.913 26.5108 34.7408 29.3212 34.7399 32.7873C34.739 36.2534 31.9103 39.063 28.4194 39.063C26.7427 39.063 25.1355 38.4018 23.9506 37.2251C22.7656 36.0483 22.0998 34.4512 22.0998 32.7864V32.7827ZM18.7381 32.7864C18.7381 36.6765 21.0962 40.182 24.7143 41.671C28.3324 43.1591 32.4963 42.3377 35.2656 39.5877C38.0348 36.8377 38.8636 32.7022 37.3645 29.1087C35.8663 25.5153 32.3352 23.1729 28.4194 23.1729C23.0751 23.1738 18.7427 27.4751 18.7399 32.7837L18.7381 32.7864ZM64.7399 32.7827C64.7418 29.3166 67.5723 26.5071 71.0632 26.5089C74.554 26.5108 77.381 29.3221 77.3791 32.7882C77.3782 36.2544 74.5476 39.0639 71.0568 39.062C69.381 39.062 67.7738 38.4009 66.5879 37.2241C65.402 36.0474 64.7372 34.4503 64.7372 32.7855L64.7399 32.7827ZM61.3755 32.7864C61.3745 36.6765 63.7335 40.182 67.3507 41.671C70.9689 43.1591 75.1337 42.3377 77.902 39.5877C80.6703 36.8377 81.5009 32.7022 80.0009 29.1087C78.5027 25.5153 74.9725 23.1729 71.0559 23.1729C65.7115 23.1738 61.3782 27.4751 61.3755 32.7837V32.7864Z" fill="black"/>
</g>
</g>
<defs>
<clipPath id="clip0_60_8872">
<rect width="100" height="67" fill="white"/>
</clipPath>
<clipPath id="clip1_60_8872">
<rect width="100" height="19.2308" fill="white" transform="translate(0 23.1729)"/>
</clipPath>
</defs>
</svg>
