<svg width="100" height="67" viewBox="0 0 100 67" fill="none" xmlns="http://www.w3.org/2000/svg">
<path d="M8 42.3133H11.1228V25.4658H8V42.3133Z" fill="#64FF01"/>
<path d="M44.2188 42.31H47.3063V29.2109H44.2188V42.31Z" fill="#64FF01"/>
<path d="M69.6211 42.3061H72.7445V29.2246H69.6211V42.3061Z" fill="#64FF01"/>
<path d="M26.133 29.2246H19.1372C19.1372 29.2246 17.8653 29.2246 17.4025 30.1551V29.2246H14.2812V42.3061H17.4025V33.8873C17.4025 32.8523 18.2359 32.015 19.2648 32.015H25.1972C26.223 32.015 27.0579 32.8523 27.0579 33.8873V42.3061H30.1196V32.9455C30.1196 32.9455 29.8889 29.2246 26.133 29.2246Z" fill="#64FF01"/>
<path d="M62.7743 29.2246H55.7801C55.7801 29.2246 54.5083 29.2246 54.0446 30.1551V29.2246H50.9219V42.3061H54.0446V33.8873C54.0446 32.8523 54.8781 32.015 55.9061 32.015H61.8369C62.866 32.015 63.6994 32.8523 63.6994 33.8873V42.3061H66.7617V32.9455C66.7617 32.9455 66.531 29.2246 62.7743 29.2246Z" fill="#64FF01"/>
<path d="M44.2188 26.7416H47.4202V24.0273H44.2188V26.7416Z" fill="#64FF01"/>
<path d="M72.7094 24.0273H69.5469V26.7416H72.7094V24.0273Z" fill="#64FF01"/>
<path d="M33.8844 27.5206V29.217H29.8008C29.8008 29.217 30.919 29.6517 31.6883 32.0349H33.8669V42.3138H36.9866V32.0349H41.5155V29.217H36.9866C36.9866 29.217 36.9683 29.3217 36.9484 29.217V28.0849C36.9484 26.7972 37.57 26.7466 39.0268 26.7466H41.5155V24.0318H39.0268C39.0268 24.0318 33.8844 23.4239 33.8844 27.5206Z" fill="#64FF01"/>
<path d="M91.5129 29.2246H87.617L83.12 33.7903L78.6216 29.2246H74.7266L81.1615 35.7765L74.7266 42.3061H78.6704L83.12 37.7747L87.5697 42.3061H91.5129L85.0788 35.7765L91.5129 29.2246Z" fill="#64FF01"/>
</svg>
