<svg width="100" height="67" viewBox="0 0 100 67" fill="none" xmlns="http://www.w3.org/2000/svg">
<g clip-path="url(#clip0_60_8702)">
<path d="M69.1259 21.8328V43.931H72.44V21.8328H69.1259ZM33.7189 21.4553C27.2625 21.4552 22.2531 26.1544 22.2531 32.8819C22.2531 39.9123 27.2625 44.3087 33.7189 44.3085C40.1752 44.3084 45.1949 39.9123 45.1847 32.8819C45.1753 26.5079 40.1752 21.4553 33.7189 21.4553ZM41.8765 32.8819C41.8765 37.8622 38.2242 41.1627 33.7189 41.1627C29.2135 41.1627 25.5612 37.8622 25.5612 32.8819C25.5612 27.9919 29.2135 24.6011 33.7189 24.6011C38.2242 24.6011 41.8765 27.9919 41.8765 32.8819ZM0 21.1172V43.931H3.38231V28.8543L20.9587 44.6466V39.9167L0 21.1172ZM47.6772 32.8819L59.9771 43.9311H64.9088L52.5905 32.8819L64.9088 21.8327H59.9771L47.6772 32.8819ZM100 43.931H96.3541L93.6882 39.0374H81.6129L78.9465 43.931H75.3006L79.7159 35.7746H91.9541L85.8518 24.4395L87.6506 21.1172L100 43.931Z" fill="#005AFF"/>
</g>
<defs>
<clipPath id="clip0_60_8702">
<rect width="100" height="23.5294" fill="white" transform="translate(0 21.1172)"/>
</clipPath>
</defs>
</svg>
