<svg width="100" height="67" viewBox="0 0 100 67" fill="none" xmlns="http://www.w3.org/2000/svg">
<path d="M28.3745 33.2466V23.6935H31.5224V24.3248C31.5224 24.6722 31.528 24.9564 31.5348 24.9564C31.5417 24.9564 31.7403 24.8418 31.9764 24.702C34.7604 23.0516 38.8076 22.5546 42.4374 23.4175C45.7076 24.1947 48.0784 26.0399 48.9211 28.4639C49.4136 29.8805 49.3864 31.4557 48.8459 32.8257C48.1736 34.5299 46.7913 35.8999 44.7975 36.8386C43.0528 37.6599 41.0608 38.0712 38.8275 38.0712C36.9761 38.0712 35.2493 37.779 33.7293 37.2085C33.1262 36.9822 32.353 36.6106 31.8841 36.3217L31.5224 36.0988V42.8H28.3745V33.2466ZM40.3501 35.5314C42.1208 35.2937 43.4946 34.7621 44.5246 33.9159C45.3043 33.2753 45.8473 32.3858 46.053 31.4118C46.1371 31.0135 46.1373 30.0729 46.0535 29.6758C45.8113 28.5296 45.1173 27.5284 44.0786 26.8264C43.6598 26.5434 42.8093 26.1402 42.2663 25.9673C40.7333 25.4792 38.8744 25.3346 37.1718 25.5711C34.2159 25.9818 32.2181 27.3693 31.682 29.3837C31.4455 30.2727 31.4878 31.2322 31.8003 32.0708C32.5101 33.9757 34.6034 35.2433 37.5615 35.5597C38.1563 35.6233 39.7891 35.6068 40.3501 35.5314ZM50.7862 33.2466V23.6935H53.934V24.3248C53.934 24.6722 53.9409 24.9564 53.9491 24.9564C53.9575 24.9564 54.1307 24.8537 54.334 24.7283C54.8047 24.4379 55.7335 24.0037 56.3292 23.7956C58.9002 22.8975 62.0394 22.7526 64.7866 23.4055C69.265 24.4695 71.9021 27.3848 71.6531 30.996C71.463 33.7525 69.525 36.0168 66.3374 37.2066C65.2976 37.5948 64.232 37.8396 62.8984 37.9965C62.1944 38.0794 60.2974 38.0794 59.5626 37.9964C57.4828 37.7616 55.657 37.177 54.2333 36.2904L53.934 36.104V42.8H50.7862V33.2466ZM62.838 35.5175C65.2903 35.1709 67.0184 34.2359 67.9265 32.7644C68.4539 31.9096 68.6514 30.7725 68.4558 29.7168C68.0492 27.5226 66.0116 26.0042 62.892 25.5707C60.833 25.2847 58.5083 25.5696 56.928 26.3017C55.3148 27.0489 54.3439 28.1645 54.0125 29.652C53.9256 30.0425 53.9258 31.0464 54.013 31.4291C54.2478 32.4595 54.7783 33.3118 55.5835 33.9525C56.6921 34.8347 58.1352 35.3599 60.0075 35.563C60.6268 35.6301 62.2221 35.6045 62.838 35.5175ZM15.3722 38.0515C13.7024 37.9118 12.2773 37.6005 11.0653 37.1106C8.30867 35.9963 6.56759 34.1155 6.09503 31.7416C6.00483 31.2882 5.97039 30.2667 6.02892 29.7786C6.37014 26.9326 8.58532 24.6784 12.0875 23.6131C13.9512 23.0463 16.2453 22.8611 18.3045 23.1113C22.077 23.5698 24.9307 25.2254 26.185 27.6836C27.2063 29.6849 27.0768 32.1161 25.8491 33.9852C25.296 34.8271 24.3856 35.696 23.4473 36.2771C21.9876 37.1812 20.2442 37.7438 18.1267 37.9936C17.7026 38.0437 15.7657 38.0843 15.3722 38.0515ZM17.6053 35.5628C19.2473 35.3978 20.6287 34.954 21.6681 34.2579C22.5177 33.6886 23.1901 32.8497 23.4919 31.9824C23.6684 31.4747 23.7034 31.2364 23.7034 30.5426C23.7034 29.8509 23.669 29.6145 23.4937 29.1065C22.9177 27.4367 21.2332 26.1946 18.8795 25.7043C16.8157 25.2743 14.4089 25.4237 12.626 26.0924C11.3395 26.575 10.3241 27.356 9.72855 28.321C9.0955 29.3471 8.95173 30.7447 9.35565 31.9492C9.79092 33.247 10.9375 34.333 12.5152 34.9422C13.3746 35.2739 14.4386 35.5053 15.492 35.589C15.8961 35.6211 17.1831 35.6051 17.6053 35.5628ZM82.539 38.0526C82.4731 38.0455 82.2421 38.0237 82.0256 38.0043C80.2879 37.8485 78.4613 37.3292 77.1219 36.6103C75.3114 35.6385 74.0504 34.2571 73.4747 32.6151C73.085 31.5041 73.0186 30.2553 73.2878 29.1064C73.6949 27.3692 74.8121 25.8941 76.5472 24.8031C78.8353 23.3644 82.1996 22.7255 85.4473 23.1128C88.1455 23.4345 90.3686 24.3685 91.9153 25.8303C93.0934 26.9435 93.7705 28.248 93.9663 29.7807C94.0172 30.179 94.0093 30.9846 93.9503 31.4073C93.5259 34.4508 90.9765 36.7771 87.0725 37.6833C85.8889 37.958 85.1459 38.0413 83.7536 38.0548C83.1514 38.0607 82.6048 38.0597 82.539 38.0526ZM84.609 35.5778C86.6875 35.3969 88.3816 34.7486 89.4691 33.718C90.2054 33.0202 90.6329 32.2521 90.8013 31.3237C90.8707 30.9411 90.8697 30.1436 90.7993 29.7469C90.4205 27.6107 88.4304 26.0622 85.4815 25.6092C84.7735 25.5004 84.3026 25.4649 83.5654 25.4649C80.2592 25.4649 77.694 26.6447 76.7073 28.6191C76.4133 29.2076 76.2777 29.8149 76.2777 30.5426C76.2777 31.5029 76.5141 32.2644 77.0478 33.0233C78.0278 34.4164 79.8861 35.3064 82.3457 35.5606C82.853 35.6131 84.0965 35.6224 84.609 35.5778Z" fill="#006E2A"/>
</svg>
