<svg width="100" height="67" viewBox="0 0 100 67" fill="none" xmlns="http://www.w3.org/2000/svg">
<mask id="mask0_45_36906" style="mask-type:luminance" maskUnits="userSpaceOnUse" x="6" y="22" width="89" height="23">
<path d="M95 22H6V44.606H95V22Z" fill="white"/>
</mask>
<g mask="url(#mask0_45_36906)">
<path d="M39.1201 44.1005C37.2368 43.8826 35.7146 43.1867 34.4914 41.985C32.9791 40.5 32.1763 38.4978 32.1763 36.2099C32.1763 31.6111 35.4871 28.2396 39.9947 28.2469C41.1831 28.249 42.3686 28.5262 43.415 29.0481C43.9138 29.297 44.5521 29.7219 44.8895 30.0301C45.0174 30.1469 45.1343 30.2423 45.149 30.2423C45.1637 30.2423 45.1762 29.8531 45.1762 29.3777V28.512H47.1282V43.9078H45.1762V42.1255L44.9981 42.2733C43.6891 43.358 42.4975 43.8863 40.918 44.0827C40.5722 44.1258 39.4335 44.1372 39.1201 44.1005ZM40.9201 42.0626C43.2799 41.6665 44.9157 39.9995 45.3822 37.5158C45.4906 36.9399 45.4933 35.4909 45.3874 34.9234C45.2638 34.2616 45.0982 33.7538 44.8231 33.1931C44.0108 31.5382 42.5796 30.5353 40.6728 30.2838C40.0125 30.1962 39.0484 30.2523 38.4175 30.4142C36.5775 30.8864 35.1585 32.2195 34.5161 34.0802C34.2494 34.8533 34.1954 35.2117 34.1954 36.2099C34.1954 36.9775 34.2095 37.1595 34.2987 37.5592C34.8331 39.9473 36.5467 41.6508 38.8283 42.0642C39.3019 42.1497 40.4055 42.1491 40.9201 42.0626ZM22.0947 44.0387C20.7899 43.902 19.5847 43.478 18.5539 42.7941C17.9775 42.4116 17.0762 41.5051 16.6832 40.9129C15.7233 39.4657 15.2625 37.7291 15.3302 35.8107C15.392 34.0666 15.8773 32.5774 16.8194 31.2411C16.9567 31.0457 17.3094 30.6453 17.6018 30.3508C18.6472 29.3006 19.9059 28.6357 21.4229 28.3323C22.034 28.2102 23.4011 28.1641 24.0368 28.2438C26.9649 28.6126 29.1586 30.5735 29.9121 33.497C30.0955 34.2091 30.1783 34.8155 30.2102 35.6884L30.238 36.4535H17.3L17.3292 36.9084C17.4603 38.9306 18.6336 40.7422 20.3854 41.6266C21.2133 42.0448 22.003 42.2266 22.996 42.2277C24.6991 42.2298 25.9856 41.7037 27.0572 40.5687C27.325 40.2851 27.9291 39.4735 28.0334 39.2581C28.0466 39.2314 29.7365 40.3376 29.7365 40.3727C29.7365 40.4801 29.0443 41.4013 28.6623 41.8012C27.2516 43.2789 25.5036 44.0072 23.2366 44.0613C22.8215 44.0718 22.308 44.0613 22.0947 44.0387ZM28.2058 34.5351C27.8385 32.2221 26.2602 30.5452 24.0352 30.1045C23.5667 30.0118 22.3557 30.0223 21.8835 30.1234C20.7621 30.3639 19.8268 30.8492 19.0496 31.5943C18.227 32.3835 17.6789 33.3744 17.3853 34.6017L17.3561 34.7237H28.2352L28.2058 34.5351ZM86.9034 44.0355C83.5041 43.7191 80.9804 41.4154 80.2966 38.0067C79.8317 35.6869 80.263 33.2681 81.4615 31.48C82.609 29.7666 84.2445 28.707 86.3605 28.3035C86.9579 28.1897 88.7342 28.1904 89.2992 28.3051C90.7108 28.5917 91.8785 29.2064 92.8505 30.1759C94.2522 31.5728 95 33.549 95 35.8531V36.4535L88.5556 36.4651L82.1117 36.4761L82.1233 36.8313C82.1705 38.2289 82.8307 39.6904 83.8677 40.6898C84.6715 41.4647 85.6467 41.9553 86.7843 42.1581C87.2901 42.2476 88.3763 42.2471 88.8852 42.1581C90.462 41.8782 91.6039 41.1031 92.5806 39.6485C92.72 39.4411 92.8505 39.2759 92.8708 39.2817C92.9233 39.2953 94.4352 40.268 94.4995 40.3298C94.5677 40.3942 94.1516 41.0215 93.6648 41.5884C92.11 43.3958 89.6377 44.2908 86.9034 44.0355ZM93.0029 34.6017C93.0029 34.5346 92.9641 34.3182 92.9171 34.1206C92.3836 31.8956 90.8126 30.4142 88.6336 30.0805C87.8031 29.953 86.8122 30.0406 85.9716 30.3162C84.1539 30.912 82.7484 32.4186 82.2658 34.2873C82.2175 34.4744 82.1783 34.6489 82.1783 34.675C82.1783 34.7096 83.7347 34.7237 87.5909 34.7237H93.004L93.0029 34.6017ZM6 36.1873V28.468H15.2285V30.2863L11.6013 30.2979L7.97451 30.3089L7.96298 37.1086L7.95198 43.9078H6V36.1873ZM50.5443 33.0815V22.3008H52.5408V43.8633H50.5443V33.0815ZM55.9574 36.1648V28.4671H57.9094L57.9115 29.4767L57.9135 30.4861L58.078 30.2869C58.6205 29.6277 59.1796 29.164 59.8126 28.848C60.5672 28.4707 61.2312 28.3061 62.1685 28.2611C63.2502 28.2102 64.13 28.3779 64.9862 28.7981C65.8945 29.2436 66.5478 29.8839 67.1635 30.9325C67.2055 31.0048 67.2317 30.985 67.3916 30.7501C68.2304 29.5214 69.4786 28.7086 71.0423 28.3731C71.6623 28.2401 73.0242 28.2264 73.6247 28.3469C74.7225 28.5686 75.5872 29.0146 76.3025 29.7294C77.0638 30.4902 77.5312 31.4068 77.8184 32.6995L77.9374 33.2367L77.952 38.5501L77.9662 43.8626H76.0111V39.1203C76.0111 36.1633 75.9939 34.205 75.965 33.9183C75.7827 32.0968 74.8399 30.7806 73.3663 30.289C72.7881 30.0985 72.1755 30.0352 71.5706 30.1035C69.67 30.3095 68.4416 31.3376 68.0125 33.0815C67.9213 33.4515 67.9192 33.5594 67.904 38.6607L67.8882 43.8626H65.9399V39.2109C65.9399 36.4305 65.9216 34.3339 65.8945 33.9995C65.7131 31.7631 64.4852 30.3456 62.5239 30.1072C60.7344 29.8891 58.8766 30.9341 58.2028 32.5386C57.9208 33.2077 57.9372 32.861 57.9209 38.6172L57.9062 43.8633H55.9568L55.9574 36.1648Z" fill="#FFC915"/>
</g>
</svg>
