<svg width="100" height="67" viewBox="0 0 100 67" fill="none" xmlns="http://www.w3.org/2000/svg">
<mask id="mask0_45_36849" style="mask-type:luminance" maskUnits="userSpaceOnUse" x="3" y="25" width="94" height="16">
<path d="M97 25H3V40.2432H97V25Z" fill="white"/>
</mask>
<g mask="url(#mask0_45_36849)">
<path fill-rule="evenodd" clip-rule="evenodd" d="M54.5774 32.0781C54.5774 32.0781 53.6385 31.4295 53.1104 31.2349C53.1104 31.2349 51.3501 30.3268 50.9981 29.9375C50.9981 29.9375 50.294 29.224 50.7046 28.3808C50.7046 28.3808 50.8807 27.8618 51.5848 27.8618C51.5848 27.8618 52.5237 27.9267 52.5237 28.7699V30.0024H55.8682V28.251C55.8682 28.251 56.1029 25.3322 51.8782 25.2023C51.8782 25.2023 48.5337 24.943 47.5948 26.9537C47.5948 26.9537 47.2428 27.4078 47.2428 28.8998V30.0024C47.2428 30.0024 47.1842 31.2996 47.7709 32.0781C47.7709 32.0781 48.1229 32.597 48.9443 33.2456C48.9443 33.2456 50.646 34.2186 51.6435 34.8025C51.6435 34.8025 52.641 35.4511 52.5237 36.4888C52.5237 36.4888 52.4651 37.5268 51.4675 37.4618C51.4675 37.4618 50.5873 37.3969 50.5873 36.4241V35.1916H47.0081V36.9429C47.0081 36.9429 46.8907 40.3159 51.5262 40.3159C51.5262 40.3159 55.927 40.4457 56.1617 36.8781V35.3861C56.1029 35.3861 56.279 33.1809 54.5774 32.0781Z" fill="#204676"/>
<path fill-rule="evenodd" clip-rule="evenodd" d="M37.332 25.5107L36.2172 33.2947H35.9239L34.8676 25.5756H29.2345L29 39.7162H32.2858L32.3445 29.0783H32.5792L34.3395 39.7162H37.8601L39.6205 29.0783H39.8551L39.9137 39.7162H43.2584L42.9062 25.5107H37.332Z" fill="#204676"/>
<path fill-rule="evenodd" clip-rule="evenodd" d="M17.5539 25.5869L15.3242 39.7275H18.9034L20.1942 28.7652H20.4876L21.8372 39.7275H25.4164L23.1867 25.5869H17.5539Z" fill="#204676"/>
<path fill-rule="evenodd" clip-rule="evenodd" d="M92.7183 31.8774V33.953H93.6571V36.1583C93.6571 37.2611 92.8357 37.2611 92.8357 37.2611C91.7794 37.2611 91.8382 36.2232 91.8382 36.2232V28.5043C91.8382 27.7259 92.7771 27.6611 92.7771 27.6611C93.6571 27.6611 93.6571 28.6341 93.6571 28.6341V29.8015H97.0017C97.1191 27.5313 96.7083 26.9476 96.7083 26.9476C95.8868 24.872 92.7183 25.0016 92.7183 25.0016C87.8482 25.0016 88.3761 29.1529 88.3761 29.1529V36.6125C88.4935 40.5044 93.2464 40.1152 93.3638 40.1152C95.4761 39.8557 96.1214 39.0773 96.1214 39.0773C96.7083 38.5583 96.8843 37.9097 96.8843 37.9097C97.0603 37.5206 97.1191 36.2881 97.1191 36.2881V31.8774H92.7183Z" fill="#204676"/>
<path fill-rule="evenodd" clip-rule="evenodd" d="M81.5069 34.1378H81.3897L77.9276 25.5107H73.8203V39.7162H77.1648L76.9887 31.0892H77.1062L80.6855 39.7162H84.6169V25.5107H81.2723L81.5069 34.1378Z" fill="#204676"/>
<path fill-rule="evenodd" clip-rule="evenodd" d="M65.7241 36.2135C65.7241 36.2135 65.7828 37.3811 64.7853 37.3811C64.7853 37.3811 63.7291 37.4458 63.7291 36.2135V25.5107H60.0911V36.0838C60.0911 36.0838 59.7391 40.1055 64.8439 40.1055C64.8439 40.1055 69.3034 40.1702 69.3034 36.2784V25.5107H65.7241V36.2135Z" fill="#204676"/>
<path fill-rule="evenodd" clip-rule="evenodd" d="M10.5696 32.0925C10.5696 32.0925 9.63071 31.4439 9.10253 31.2494C9.10253 31.2494 7.34231 30.3413 6.9902 29.952C6.9902 29.952 6.28609 29.2385 6.69689 28.3953C6.69689 28.3953 6.87283 27.8763 7.57706 27.8763C7.57706 27.8763 8.51579 27.9411 8.51579 28.7844V30.0169H11.8605V28.2655C11.8605 28.2655 12.0951 25.3466 7.87037 25.2168C7.87037 25.2168 7.57706 25.2168 7.10758 25.2168C7.10758 25.2168 4.52588 25.3465 3.64571 26.9033C3.64571 26.9033 3.29358 27.3574 3.29358 28.8493V29.952C3.29358 29.952 3.2349 31.2494 3.82163 32.0276C3.82163 32.0276 4.17375 32.5464 4.99524 33.1952C4.99524 33.1952 6.6382 34.1682 7.69431 34.7519C7.69431 34.7519 8.69186 35.4007 8.57448 36.4386C8.57448 36.4386 8.51579 37.4763 7.51837 37.4114C7.51837 37.4114 6.6382 37.3467 6.6382 36.3735V35.1412H3.00027V36.8926C3.00027 36.8926 2.88291 40.2655 7.51837 40.2655C7.51837 40.2655 11.9191 40.3953 12.1537 36.8277V35.4007C12.0951 35.4007 12.2711 33.1952 10.5696 32.0925Z" fill="#204676"/>
</g>
</svg>
