<svg width="100" height="67" viewBox="0 0 100 67" fill="none" xmlns="http://www.w3.org/2000/svg">
<g clip-path="url(#clip0_64_9093)">
<mask id="mask0_64_9093" style="mask-type:luminance" maskUnits="userSpaceOnUse" x="8" y="17" width="84" height="30">
<path d="M91.9275 17.999H8V46.9989H91.9275V17.999Z" fill="white"/>
</mask>
<g mask="url(#mask0_64_9093)">
<path d="M70.668 37.5633C70.668 40.1446 70.668 42.7326 70.6669 45.3161C70.7893 46.3907 70.176 47.1037 69.0628 46.9722C66.0644 46.9734 63.0604 46.9768 60.062 46.9722C58.3197 46.9473 56.5195 47.0833 54.8577 46.4655C52.2855 45.519 50.2257 43.2223 49.5728 40.5685C49.1409 39.0053 49.3449 37.374 49.2474 35.7745C49.1681 32.1198 48.9958 28.3902 49.4855 24.7661C50.1158 21.906 52.307 19.4155 55.1036 18.4894C57.8311 17.7038 60.7671 18.2037 63.5739 18.0779C65.085 18.0779 66.5961 18.0949 68.1038 18.0801C69.2521 17.9996 70.7904 17.9124 70.6635 19.5119C70.8233 21.4458 70.0797 22.0579 68.2138 21.9253C65.764 21.9219 63.286 21.923 60.8295 21.9242C52.349 21.3902 53.0575 25.6821 53.079 32.4066C53.2763 35.9684 51.9681 41.4006 56.3994 42.7722C58.3276 43.2892 60.3862 42.9661 62.3644 43.0545C63.566 43.0545 64.771 43.0579 65.967 43.0534C66.8149 43.1429 67.4713 42.5841 67.4055 41.701C66.8784 30.3242 69.9153 32.1459 60.2049 32.0087C59.1846 32.1209 58.4682 31.5473 58.5759 30.4772C58.5385 29.551 58.6462 28.3664 59.7673 28.2372C62.9142 28.0445 66.0962 28.2123 69.2521 28.1601C70.337 28.0524 70.7666 28.8777 70.6669 29.856C70.6725 32.4156 70.6692 34.9844 70.6692 37.5418V37.5633H70.668Z" fill="#26D07C"/>
<path d="M91.9193 32.3771C91.9193 34.9187 91.9238 37.467 91.9148 40.0097C91.942 42.2622 90.9512 44.6597 88.9538 45.8341C87.0833 46.9598 84.8558 46.9065 82.7416 46.97C81.0855 47.0278 79.4021 47.0335 77.7765 46.7082C73.8361 46.1232 72.2581 43.1305 72.0314 39.4225C71.9849 35.7326 71.9928 32.0382 72.037 28.3484C72.0926 26.8146 71.9645 25.2514 72.2445 23.7369C72.97 20.1218 75.1522 18.3171 78.8273 18.1833C81.9651 17.9453 85.3013 17.7639 88.3133 18.8284C90.7755 19.7987 92.0417 22.491 91.9182 25.0428C91.9182 27.48 91.9182 29.9195 91.9182 32.3556V32.3783L91.9193 32.3771ZM75.6238 32.6027C75.6011 34.2759 75.6328 35.9605 75.6204 37.6314C75.5682 39.4463 75.66 41.7532 77.5962 42.5716C78.6233 43.0772 79.7841 43.0319 80.9154 43.0375C81.9447 43.0375 82.9774 43.0489 84.0067 43.0307C88.5049 43.0251 88.5366 40.1831 88.4879 36.5465C88.421 33.2251 88.4561 29.8991 88.4493 26.5856C88.5638 24.5814 87.7646 22.4944 85.5836 22.1124C84.3604 21.8596 83.1203 21.9662 81.879 21.9401C80.462 21.9741 78.9565 21.8392 77.6257 22.4049C76.0466 23.0714 75.5761 24.9101 75.6317 26.4836C75.6226 28.515 75.634 30.5532 75.6249 32.5823V32.6039L75.6238 32.6027Z" fill="#26D07C"/>
<path d="M41.4809 18.1061C42.9058 18.097 44.3591 18.1083 45.724 18.0947C46.3316 18.1174 47.0775 17.9746 47.5752 18.3861C48.0048 18.7942 47.9039 19.5797 47.905 20.176C47.9322 21.4241 47.2305 21.9705 46.0391 21.9218C44.1415 21.9342 42.237 21.9263 40.3382 21.9308C38.1164 21.9501 35.5238 21.6452 33.8495 23.4204C32.6694 24.6061 32.4257 26.3111 32.4767 27.9083C32.4234 29.4705 32.4438 31.0224 32.4801 32.589C32.4948 33.9425 32.4801 35.2949 32.4824 36.6485C32.4858 37.7821 32.4518 38.91 32.8451 39.971C33.896 42.9808 36.8297 43.0975 39.5549 43.051C41.8516 43.0749 44.1517 43.0261 46.4484 43.0431C48.1703 42.9048 47.9753 44.5021 47.8302 45.7422C47.65 47.6013 43.8944 46.8044 42.5748 46.8985C40.5967 46.8407 38.6186 46.9325 36.6416 46.9438C33.0866 46.7953 29.8411 44.1336 28.9478 40.7011C28.5034 38.8635 28.6281 36.9523 28.4887 35.0761C28.398 32.3974 28.4116 29.6972 28.5873 27.0287C28.6848 25.4994 28.9024 23.9464 29.6178 22.5679C30.7094 20.4209 32.7952 18.8826 35.1259 18.3407C37.1868 17.9122 39.3928 18.1741 41.4571 18.1049H41.4798L41.4809 18.1061Z" fill="#26D07C"/>
<path d="M13.4602 41.9231C11.9174 41.8902 10.353 41.9866 8.81355 41.8778C8.07444 41.7678 8.00643 41.0321 8.00416 40.3678C8.00076 39.9257 7.97922 39.4371 8.08238 39.0211C8.3057 38.1074 9.39736 38.087 10.1671 38.0836C12.3799 38.0836 14.5949 38.0859 16.8055 38.0768C17.2181 38.0825 17.8971 38.0178 17.9799 37.5451C17.9946 36.814 16.6955 36.8049 16.1491 36.6292C14.5541 36.2823 12.9093 35.8062 11.6294 34.7508C8.47687 32.2138 7.69015 27.5127 9.20124 23.8648C10.3292 20.8857 13.0759 18.7046 16.2194 18.2217C16.9687 18.0846 17.7316 18.1027 18.4957 18.097C19.5772 18.0925 20.6586 18.0936 21.7412 18.0948C23.1027 18.097 24.4641 18.0948 25.8222 18.0948C26.3142 18.0982 26.9297 18.071 27.238 18.5187C27.5226 18.9665 27.4716 19.5548 27.4693 20.0684C27.4546 21.0319 27.1972 21.7971 26.1464 21.8935C23.555 22.0148 20.95 21.9241 18.3574 21.9422C17.1489 21.9422 15.8906 22.0748 14.8421 22.7187C12.2087 24.3557 11.5693 28.3981 13.467 30.8206C14.3977 32.0097 15.8272 32.6729 17.2748 33.0051C18.8992 33.3712 20.7096 33.7283 21.7367 35.16C23.0222 36.891 22.6526 39.6004 21.0123 40.9788C19.7064 42.058 17.9118 41.9095 16.318 41.9208C15.3782 41.9276 14.4181 41.9265 13.484 41.922H13.4625L13.4602 41.9231Z" fill="#26D07C"/>
<path d="M22.057 23.0689C23.3799 23.0655 24.7085 23.0689 26.0359 23.0666C27.4529 22.9975 27.4881 23.8023 27.479 25.004C27.5017 25.9449 27.3316 26.6783 26.2865 26.8359C23.6644 27.0172 21.0197 26.8585 18.3954 26.973C17.7481 26.9889 17.2437 27.507 17.8955 27.9661C18.3637 28.2415 18.9248 28.2903 19.4452 28.4331C19.9394 28.5499 20.4337 28.6644 20.9155 28.8027C22.1885 29.1586 23.4264 29.7549 24.3945 30.6732C26.7365 32.7975 27.7148 36.1734 27.1083 39.2489C26.2683 43.925 22.3631 46.9676 17.6484 46.9472C14.8812 46.9789 12.113 46.9528 9.34471 46.9528C8.78584 46.9619 8.20317 46.7794 8.08754 46.1627C7.98665 45.7138 8.00706 45.2388 8.01499 44.7797C8.01499 44.027 8.25758 43.3367 9.02617 43.1666C9.47281 43.0532 9.94438 43.0532 10.4046 43.043C13.2216 43.0045 16.0602 43.119 18.8738 42.9852C20.9585 42.8084 22.6408 41.4129 23.2631 39.4212C24.0623 37.3875 23.5295 34.8845 21.7702 33.5355C20.2648 32.377 18.2979 32.2455 16.5533 31.6492C14.4539 31.0132 13.3033 29.1994 13.5016 27.0308C13.5696 25.3474 14.5457 23.8432 16.1792 23.3115C16.8741 23.0553 17.6291 23.0723 18.3637 23.0723C19.5767 23.07 20.844 23.0734 22.0389 23.07H22.0604L22.057 23.0689Z" fill="#26D07C"/>
<path d="M64.2208 23.0706C65.9042 23.0649 67.5978 23.0683 69.2869 23.0672C69.7007 23.0695 70.2074 23.0729 70.4647 23.4368C70.7901 24.0387 70.8536 26.1755 70.1723 26.5859C69.1203 27.1493 67.7951 26.8489 66.6411 26.9135C64.1778 26.9294 61.711 26.8976 59.2477 26.9214C58.0076 26.8614 57.6652 27.8113 57.7491 28.8871C57.7457 30.8811 57.7752 32.8944 57.7593 34.8827C57.7876 36.4652 57.3331 38.3073 59.6252 38.0806C60.294 38.0069 61.507 38.3413 61.7779 37.5297C61.3438 35.9732 58.4055 38.3198 58.5211 35.2829C58.5211 34.2128 58.3828 32.8944 59.8803 33.061C61.5535 33.061 63.2278 33.0599 64.901 33.061C65.9428 32.9703 66.3985 33.451 66.3021 34.4894C66.3021 36.5468 66.3033 38.6213 66.2987 40.6879C66.377 41.4996 65.8634 42.0017 65.0529 41.919C62.5737 41.8793 60.0617 42.0267 57.5938 41.8294C54.9763 41.4315 54.0751 39.0136 54.2553 36.6341C54.2134 33.2798 54.1034 29.9028 54.329 26.5576C54.6102 23.8936 57.1517 22.8552 59.5651 23.0717C61.1068 23.0683 62.6599 23.074 64.1993 23.0672H64.2208V23.0706Z" fill="#26D07C"/>
<path d="M39.579 32.0063C38.0327 32.0063 36.4763 32.012 34.9267 32.0041C34.5752 31.9984 34.1751 31.9882 33.8917 31.7705C33.2863 31.3046 33.6117 29.916 33.5403 29.1882C33.5527 27.9764 33.4473 26.7125 33.9257 25.5698C34.3723 24.4509 35.3846 23.5871 36.5477 23.2833C37.0567 23.1371 37.5872 23.0793 38.1166 23.0747C40.869 23.0713 43.6327 23.069 46.3908 23.0713C47.9654 22.9886 47.9665 23.7844 47.9087 25.0801C47.8905 25.7376 47.784 26.4857 47.1095 26.7431C46.2264 27.0446 45.2697 26.8757 44.348 26.9154C43.168 26.9188 41.9856 26.9188 40.8055 26.9188C40.1016 26.9188 39.3965 26.9176 38.6948 26.9233C38.3309 26.9324 37.9386 26.9335 37.6133 27.1081C37.3911 27.2248 37.212 27.4674 37.2539 27.7134C37.3322 28.1261 37.874 28.1669 38.2322 28.168C40.3283 28.1759 42.4322 28.1533 44.5226 28.1703C45.4408 28.1635 45.6936 28.7189 45.6505 29.5816C45.6131 30.1812 45.7707 30.8943 45.5689 31.4429C45.3637 31.944 44.7471 32.0007 44.2664 32.0029C42.7122 32.0131 41.1513 32.0052 39.6016 32.0075H39.5801L39.579 32.0063Z" fill="#26D07C"/>
<path d="M42.0454 41.9266C40.7316 41.9255 39.4087 41.9334 38.0937 41.9221C36.5622 41.9436 34.8969 41.3281 34.1601 39.9043C33.2827 38.1903 33.6001 36.1827 33.557 34.3247C33.5037 32.9746 34.2247 33.0301 35.322 33.0539C38.3363 33.0539 41.3517 33.0516 44.367 33.0562C44.6697 33.0584 45.0268 33.0709 45.2728 33.2319C45.792 33.5833 45.6854 34.4074 45.7115 34.9788C45.7058 35.4254 45.6945 35.897 45.4825 36.2563C45.1379 36.8549 44.3659 36.8719 43.7492 36.8776C41.9343 36.8855 40.1092 36.8855 38.2955 36.8878C38.0109 36.8957 37.6844 36.9025 37.4532 37.0805C37.0678 37.3967 37.4056 37.8899 37.8307 37.9817C38.1764 38.0803 38.5596 38.0701 38.9235 38.0803C41.6022 38.1075 44.2979 38.0372 46.9743 38.0848C48.0048 38.1812 47.9424 39.3159 47.8937 40.1106C47.8427 41.3848 47.438 41.947 46.123 41.9221C44.7751 41.9346 43.4159 41.9255 42.0704 41.9278H42.0488L42.0454 41.9266Z" fill="#26D07C"/>
<path d="M87.2998 32.6254C87.2975 34.65 87.3032 36.686 87.2953 38.7129C87.3055 39.7218 87.1037 40.9291 86.1605 41.4766C84.8659 42.159 83.2925 41.8768 81.8812 41.972C80.4143 41.8745 78.3409 42.2644 77.3241 40.9631C76.9534 40.4631 76.8536 39.7955 76.8321 39.1765C76.7176 34.9244 76.738 30.6643 76.8015 26.4121C76.8242 24.3025 77.7163 23.2324 79.86 23.0918C81.1273 23.0136 82.4026 23.0657 83.6745 23.0555C85.5268 23.0079 86.9835 23.679 87.2306 25.681C87.3961 27.9788 87.2567 30.3015 87.2998 32.6039V32.6254ZM80.5208 32.5257C80.5231 33.9087 80.5118 35.3687 80.5254 36.7733C80.5288 37.8615 80.9765 38.12 82.0489 38.0803C82.7416 38.1064 83.4195 37.9749 83.5113 37.1576C83.6076 34.2125 83.517 31.2515 83.5476 28.2996C83.5612 27.5446 83.314 26.9506 82.4763 26.9234C81.9764 26.9098 81.3427 26.8667 80.9357 27.141C80.3576 27.5797 80.5605 28.4787 80.5208 29.1464C80.5208 30.2653 80.5208 31.3887 80.5208 32.5041V32.5257Z" fill="#26D07C"/>
</g>
</g>
<defs>
<clipPath id="clip0_64_9093">
<rect width="84" height="29.0202" fill="white" transform="translate(8 18)"/>
</clipPath>
</defs>
</svg>
