<svg width="100" height="67" viewBox="0 0 100 67" fill="none" xmlns="http://www.w3.org/2000/svg">
<path fill-rule="evenodd" clip-rule="evenodd" d="M73.3886 31.0995C74.1349 30.9503 79.3491 31.0342 80.5431 31.0342C81.6158 31.0342 83.0429 30.9409 84.0223 31.1928C89.106 32.4987 89.0687 40.4647 83.5653 41.4068C82.7538 41.5467 77.6328 41.4721 76.3922 41.4721C75.3475 41.4721 73.8271 41.5654 72.9129 41.3229C69.928 40.5114 68.5195 37.2839 69.4616 34.4295C70.0119 32.7506 71.4111 31.4727 73.3886 31.0995ZM90.9436 37.2373C91.3074 33.8886 89.8615 31.2208 88.052 29.7377C87.0911 28.9448 86.0464 28.3572 84.5354 28.0028C83.2482 27.6949 80.9815 27.8255 79.5077 27.8255C77.754 27.8255 76.0098 27.8255 74.2561 27.8255C72.5678 27.8162 71.2992 28.1986 70.0773 28.9075C64.9189 31.8644 64.6392 39.1308 68.8832 42.7687C71.5231 45.0166 74.0788 44.6902 77.4275 44.6902C79.1719 44.6902 80.9255 44.6902 82.6698 44.6902C86.8953 44.6902 90.4679 41.7053 90.9436 37.2373ZM41.2729 30.1201C41.3662 30.6612 42.243 31.8178 42.5601 32.2749L46.7017 38.3753C47.5132 39.5692 48.6326 41.2949 49.4721 42.4422C50.3116 43.5989 51.7574 44.8674 53.9774 44.7648C56.0482 44.6715 57.2142 43.3563 58.1003 42.069C59.0051 40.7539 59.9193 39.3827 60.8707 38.0022L65.7118 30.8757C66.6912 29.4205 65.4599 27.8349 64.0421 28.1053C63.1467 28.2825 62.7643 29.0847 62.2978 29.7844L59.5461 33.8605C58.6227 35.1851 57.7086 36.5843 56.7757 37.9182C56.3 38.5991 55.8709 39.2614 55.3952 39.9517C55.0128 40.5114 54.3972 41.5374 53.3524 41.2855C52.5783 41.0989 52.0373 40.1382 51.6548 39.5598C51.1884 38.8696 50.7593 38.2354 50.2742 37.5264C49.3509 36.1739 48.474 34.896 47.5132 33.4594C46.5805 32.0696 45.7129 30.801 44.7522 29.3925C44.3232 28.7676 43.8381 27.9001 42.6628 28.1053C41.8232 28.2545 41.0957 29.0754 41.2729 30.1201ZM9.01734 30.0641C9.1013 30.6705 9.97809 31.7805 10.2952 32.2375L15.8173 40.3714C17.1885 42.4235 18.513 44.8861 21.6658 44.7741C24.5575 44.6623 25.7608 42.2369 27.2346 40.0449L31.3855 33.9538C31.8238 33.2823 32.2903 32.6013 32.766 31.9204C33.2883 31.1649 33.9319 30.4186 33.82 29.5791C33.6894 28.7117 32.8965 27.9561 31.8612 28.0959C30.9657 28.2266 30.574 29.0008 30.0889 29.7377C29.1467 31.1555 28.2886 32.3868 27.3279 33.8046C26.4044 35.1758 25.5183 36.519 24.5669 37.8715C24.0818 38.5619 23.662 39.2055 23.1863 39.905C22.7759 40.4833 22.2161 41.4908 21.1714 41.3042C20.3414 41.155 19.8749 40.2035 19.4365 39.5785C17.1419 36.3138 14.7726 32.7412 12.5246 29.4112C12.0675 28.7396 11.5918 27.928 10.4351 28.1053C9.60502 28.2266 8.87746 29.0288 9.01734 30.0641ZM37.2434 28.124C35.5457 28.4785 35.8161 29.9243 35.8161 31.6965V41.7892C35.8161 42.638 35.6949 43.4123 36.1147 44.0279C36.9075 45.2126 38.7731 44.9327 39.1835 43.5802C39.3421 43.0484 39.2581 36.9295 39.2581 36.0993C39.2581 34.4295 39.2581 32.7412 39.2581 31.0623C39.2581 30.204 39.37 29.4671 38.9689 28.8422C38.6705 28.3852 38.0175 27.9561 37.2434 28.124ZM37.3086 22.0516C37.0194 22.1728 36.8423 22.4247 36.637 22.6299L35.3964 23.8611C34.5848 24.6726 35.2471 24.9899 36.2639 26.0066C36.4784 26.2304 36.665 26.4076 36.8795 26.6315C37.691 27.443 37.9803 26.8461 39.0435 25.7827C40.5173 24.3182 40.4707 24.626 38.1854 22.35C37.9895 22.1635 37.7284 21.8837 37.3086 22.0516Z" fill="#0072BC"/>
</svg>
