<svg width="100" height="67" fill="none" xmlns="http://www.w3.org/2000/svg"><g clip-path="url(#a)" fill-rule="evenodd" clip-rule="evenodd"><path d="M57.311 28.307a3.571 3.571 0 0 1-.378.027c-.2.008-.373.02-.383.025-.01.006-.121.018-.247.028-.126.01-.237.022-.246.028-.01.006-.097.018-.194.027a7.55 7.55 0 0 0-1.91.464c-.104.032-.114.108-.131 1.068-.019 1.03-.023 1.005.156 1.027.06.007.17-.01.277-.042.397-.12.556-.164.973-.269a18.18 18.18 0 0 1 1.444-.31c.56-.084 1.832-.068 2.093.027.051.02.179.054.283.078.218.049.39.13.58.274.14.104.224.26.294.532.045.178.048.201.066.471l.017.254-.228-.019c-.903-.074-1.93-.104-2.376-.07l-.716.057c-.722.057-1.617.243-2.065.43-.587.246-1.153.698-1.315 1.051-.333.726-.402 1.654-.19 2.52.081.33.15.517.263.71.04.068.072.134.072.147 0 .074.6.604.895.791a.832.832 0 0 1 .149.11c.005.01.024.019.042.019.019 0 .113.035.209.078.096.044.267.106.38.139.112.033.256.077.32.098.063.021.304.071.536.11.421.073.426.073 1.599.073 1.185 0 1.498-.017 1.918-.104.585-.122.852-.195 1.074-.292.465-.206.583-.276.816-.485a4.3 4.3 0 0 0 .419-.432c.122-.163.388-.713.44-.912.03-.112.064-.223.077-.246.052-.096.142-.74.17-1.211a34.34 34.34 0 0 0-.004-2.072c-.026-.456-.085-.907-.154-1.176-.127-.493-.198-.693-.363-1.022-.415-.828-1.275-1.51-2.27-1.8a6.213 6.213 0 0 0-.78-.147 4.106 4.106 0 0 1-.18-.026c-.086-.017-1.416-.042-1.432-.028Zm11.547.149c-.372.019-.463.03-.882.101a3.713 3.713 0 0 0-.894.247c-.19.08-.274.125-.527.28l-.207.124c-.183.11-.525.455-.749.756-.177.238-.487.848-.487.958a.323.323 0 0 1-.037.11c-.074.143-.219.82-.272 1.268-.048.405-.053.557-.043 1.292.015 1.085.066 1.412.357 2.298.11.333.25.587.523.944.184.24.553.605.7.69.062.037.12.074.127.082.024.028.115.078.345.19.248.121.39.172.683.246.103.026.25.064.327.086.432.119 1.08.165 2.225.157.756-.005.929-.013 1.202-.059.56-.093 1.152-.267 1.484-.435.25-.127.37-.195.396-.224a5.01 5.01 0 0 1 .243-.206c.27-.22.384-.328.384-.364 0-.015.01-.028.021-.028.022 0 .27-.355.272-.388 0-.01.024-.044.052-.077.029-.032.075-.1.104-.149.065-.111.241-.544.241-.593 0-.02.01-.047.023-.06.067-.072.229-.934.286-1.527.028-.289.02-1.613-.01-1.758a3.06 3.06 0 0 1-.03-.23c-.066-.683-.274-1.406-.517-1.796a.545.545 0 0 1-.059-.114c0-.01-.06-.1-.135-.199-.075-.099-.17-.226-.211-.283a2.284 2.284 0 0 0-.226-.243c-.146-.136-.459-.383-.486-.383a.875.875 0 0 1-.129-.078c-.176-.12-.564-.295-.866-.393-.267-.086-.703-.167-1.207-.223-.294-.032-1.53-.044-2.02-.019Zm11.697.009a1.508 1.508 0 0 1-.214.025 7.17 7.17 0 0 0-.37.04l-.269.038c-.236.033-.71.18-.921.287-.227.115-.653.423-.782.567-.13.143-.403.661-.454.86a5.74 5.74 0 0 0-.131.828c-.028.344-.021 6.973.007 7 .026.026 2.282.03 2.308.004.01-.01.027-1.507.038-3.325.01-1.818.026-3.346.035-3.395.037-.2.125-.449.186-.528.084-.11.272-.245.417-.298.295-.108.623-.142 1.266-.13.78.016.988.06 1.232.26.232.192.3.346.333.747.012.162.026 1.692.029 3.401.003 1.71.012 3.144.02 3.188.014.075.023.082.134.093.198.02 2.172.007 2.193-.014.01-.01.022-1.49.026-3.286.005-1.797.014-3.331.02-3.41a2 2 0 0 1 .055-.294 7.63 7.63 0 0 0 .055-.208c.022-.094.247-.298.382-.347.408-.146 1.456-.182 2.077-.07.37.065.677.277.753.519.125.397.128.488.144 3.885.008 1.753.024 3.197.035 3.209.033.033 2.166.044 2.25.011l.072-.028-.011-3.42a221.585 221.585 0 0 0-.027-3.561c-.073-.654-.145-.927-.335-1.267a2.15 2.15 0 0 0-.72-.754c-.781-.507-1.465-.652-2.976-.63-.429.006-.82.017-.87.025-.049.008-.146.02-.217.028a5.775 5.775 0 0 0-1.023.214 3.801 3.801 0 0 0-.346.158c-.248.125-.281.135-.46.137-.179.003-.207-.005-.447-.12-.395-.191-.671-.274-1.176-.352-.584-.091-.713-.1-1.5-.098-.445 0-.813.005-.818.01Zm-38.18.12c-.097.02-.174.09-.242.218a.713.713 0 0 1-.066.11 1.72 1.72 0 0 0-.103.14 3.616 3.616 0 0 1-.291.374 2.128 2.128 0 0 0-.27.375c-.032.06-.069.108-.08.108-.012 0-.021.015-.021.033 0 .018-.023.05-.051.07-.028.02-.051.05-.051.067 0 .016-.018.036-.039.044s-.038.032-.038.052c0 .02-.009.04-.02.046-.039.017-.492.588-.492.62 0 .008-.02.037-.044.064a1.823 1.823 0 0 0-.072.083c-.16.208-.295.388-.367.494-.103.15-.265.314-.276.28a5.22 5.22 0 0 0-.214-.305 33.625 33.625 0 0 1-.459-.638 3.365 3.365 0 0 0-.143-.183 4.157 4.157 0 0 1-.23-.317 2.308 2.308 0 0 0-.152-.218 5.333 5.333 0 0 1-.23-.307c-.111-.154-.26-.356-.333-.447a6.041 6.041 0 0 1-.217-.294c-.047-.07-.101-.143-.12-.162-.062-.064-.188-.26-.168-.262.011-.001-.003-.012-.03-.024-.029-.012-.674-.023-1.434-.024-1.099-.001-1.392.005-1.428.032-.041.03-.043.046-.016.147.037.134.063.173.387.574.136.169.297.372.359.452.06.08.203.26.316.4.112.14.227.287.255.326.028.04.07.09.091.112.078.078.302.35.437.529.075.1.233.295.35.434.254.303.257.306.336.42.034.049.069.095.077.102.007.007.048.059.09.115.04.056.087.115.102.13.014.016.06.072.101.124.041.053.109.132.15.177.043.044.124.144.181.221.058.078.111.146.119.154l.147.174c.114.14.13.169.102.206-.154.21-.346.453-.443.556a2.16 2.16 0 0 0-.16.189 1.706 1.706 0 0 1-.085.115 4.608 4.608 0 0 0-.278.356.312.312 0 0 1-.057.072 5.142 5.142 0 0 0-.296.357c-.02.026-.074.09-.122.143a.461.461 0 0 0-.087.116c0 .011-.015.035-.032.053a2.047 2.047 0 0 0-.109.13c-.11.14-.223.275-.27.32a3.1 3.1 0 0 0-.175.218c-.145.191-.29.368-.375.457a.382.382 0 0 0-.07.099c-.009.024-.028.044-.043.044-.014 0-.026.018-.026.039s-.01.038-.02.038c-.011 0-.04.035-.066.078a.992.992 0 0 1-.101.138c-.03.033-.09.103-.13.155a4.905 4.905 0 0 1-.142.168c-.036.04-.111.139-.168.218-.056.08-.128.173-.16.207-.031.034-.057.072-.057.086 0 .013-.01.024-.02.024-.038 0-.108.149-.108.229 0 .059.015.086.058.103.032.013.666.02 1.434.018 1.34-.004 1.378-.006 1.414-.055.02-.028.09-.11.155-.184a3.3 3.3 0 0 0 .197-.245c.074-.106.264-.361.338-.452l.157-.194c.069-.084.204-.262.3-.396.097-.134.19-.255.208-.269.029-.022.093-.1.228-.28.19-.254.332-.438.344-.448.009-.008.08-.105.158-.218.158-.227.306-.396.345-.396.015 0 .064.059.111.131.047.072.153.217.236.322.083.104.227.301.32.437.17.251.25.36.334.452.068.076.261.341.261.358 0 .009.05.081.109.161.06.08.132.181.161.224.03.042.072.1.095.128.104.127.216.272.275.357.035.05.076.106.09.123.058.066.191.271.191.295 0 .014.035.055.078.091l.08.066H43.7c.741 0 1.372-.007 1.402-.015.043-.012.058-.038.066-.118.005-.063-.004-.117-.023-.137-.019-.018-.034-.039-.034-.046a.515.515 0 0 0-.083-.098.8.8 0 0 1-.122-.159 2.172 2.172 0 0 0-.204-.268 7.301 7.301 0 0 1-.243-.297 9.237 9.237 0 0 0-.478-.596c-.011-.005-.02-.023-.02-.041 0-.018-.025-.054-.054-.081a2.718 2.718 0 0 1-.2-.24 31.615 31.615 0 0 0-.538-.691 20.897 20.897 0 0 1-.3-.384 3.886 3.886 0 0 0-.161-.204c-.02-.017-.312-.4-.346-.455a.797.797 0 0 0-.08-.099c-.071-.074-.29-.359-.29-.377a.307.307 0 0 0-.058-.075c-.205-.22-.352-.431-.352-.505 0-.03.027-.063.064-.08.035-.016.064-.038.064-.05 0-.012.029-.047.063-.077.035-.03.095-.102.134-.16.104-.154.23-.315.386-.488.164-.183.176-.197.288-.345.048-.064.096-.121.105-.128.009-.007.067-.082.13-.166.062-.085.158-.207.213-.272a9.43 9.43 0 0 0 .299-.368c.066-.084.136-.17.155-.192.02-.02.097-.119.172-.217.076-.098.2-.254.275-.345l.177-.218c.022-.028.088-.104.145-.17.058-.065.117-.134.13-.153l.102-.137c.085-.115.289-.36.484-.583.136-.155.216-.314.219-.432 0-.059-.012-.072-.082-.084-.12-.02-2.636-.03-2.73-.01Zm5.45.044c-.034.063-.027 9.449.007 9.482.028.028 2.308.028 2.335 0 .026-.025.022-9.475-.003-9.5-.01-.01-.534-.021-1.165-.025-1.125-.008-1.148-.007-1.174.043Zm46.93-.025c-.06.01-.092.032-.1.066-.007.028-.013 2.148-.015 4.711-.003 4.298 0 4.664.04 4.703.036.037.156.043 1.01.055.532.008 1.045.005 1.14-.005l.173-.018v-9.503l-.144-.017c-.174-.02-1.982-.014-2.105.008Zm-24.395 1.82c.735.076 1.22.268 1.531.608.375.409.477.785.51 1.87.04 1.376-.045 2.148-.28 2.532-.148.244-.51.553-.807.69-.424.194-.742.244-1.56.244-.645 0-.825-.02-1.25-.137a1.967 1.967 0 0 1-.86-.49c-.135-.134-.308-.455-.374-.69a6.12 6.12 0 0 1-.189-1.512c.002-1.113.099-1.727.341-2.175.11-.203.373-.509.493-.573a8.63 8.63 0 0 1 .419-.212 4.57 4.57 0 0 1 .665-.156c.217-.03 1.067-.03 1.36 0Zm-11.31 3.428c.162.011.323.027.358.034.035.008.162.021.282.03a5.604 5.604 0 0 1 .34.033c.024.003 0 .72-.037 1.073-.029.277-.115.593-.2.73-.109.176-.422.395-.62.434-.032.007-.11.03-.174.054-.215.08-.704.112-1.56.103a15.954 15.954 0 0 1-.908-.024c-.322-.053-.64-.153-.819-.257-.124-.073-.323-.319-.408-.505-.11-.243-.14-.77-.05-.943.038-.074.188-.272.282-.373.09-.095.497-.253.748-.29.22-.033.774-.098.938-.11.234-.017 1.53-.01 1.828.011Z" fill="#000"/><path d="M57.311 28.307a3.571 3.571 0 0 1-.378.027c-.2.008-.373.02-.383.025-.01.006-.121.018-.247.028-.126.01-.237.022-.246.028-.01.006-.097.018-.194.027a7.55 7.55 0 0 0-1.91.464c-.104.032-.114.108-.131 1.068-.019 1.03-.023 1.005.156 1.027.06.007.17-.01.277-.042.397-.12.556-.164.973-.269a18.18 18.18 0 0 1 1.444-.31c.56-.084 1.832-.068 2.093.027.051.02.179.054.283.078.218.049.39.13.58.274.14.104.224.26.294.532.045.178.048.201.066.471l.017.254-.228-.019c-.903-.074-1.93-.104-2.376-.07l-.716.057c-.722.057-1.617.243-2.065.43-.587.246-1.153.698-1.315 1.051-.333.726-.402 1.654-.19 2.52.081.33.15.517.263.71.04.068.072.134.072.147 0 .074.6.604.895.791a.832.832 0 0 1 .149.11c.005.01.024.019.042.019.019 0 .113.035.209.078.096.044.267.106.38.139.112.033.256.077.32.098.063.021.304.071.536.11.421.073.426.073 1.599.073 1.185 0 1.498-.017 1.918-.104.585-.122.852-.195 1.074-.292.465-.206.583-.276.816-.485a4.3 4.3 0 0 0 .419-.432c.122-.163.388-.713.44-.912.03-.112.064-.223.077-.246.052-.096.142-.74.17-1.211a34.34 34.34 0 0 0-.004-2.072c-.026-.456-.085-.907-.154-1.176-.127-.493-.198-.693-.363-1.022-.415-.828-1.275-1.51-2.27-1.8a6.213 6.213 0 0 0-.78-.147 4.106 4.106 0 0 1-.18-.026c-.086-.017-1.416-.042-1.432-.028Zm11.547.149c-.372.019-.463.03-.882.101a3.713 3.713 0 0 0-.894.247c-.19.08-.274.125-.527.28l-.207.124c-.183.11-.525.455-.749.756-.177.238-.487.848-.487.958a.323.323 0 0 1-.037.11c-.074.143-.219.82-.272 1.268-.048.405-.053.557-.043 1.292.015 1.085.066 1.412.357 2.298.11.333.25.587.523.944.184.24.553.605.7.69.062.037.12.074.127.082.024.028.115.078.345.19.248.121.39.172.683.246.103.026.25.064.327.086.432.119 1.08.165 2.225.157.756-.005.929-.013 1.202-.059.56-.093 1.152-.267 1.484-.435.25-.127.37-.195.396-.224a5.01 5.01 0 0 1 .243-.206c.27-.22.384-.328.384-.364 0-.015.01-.028.021-.028.022 0 .27-.355.272-.388 0-.01.024-.044.052-.077.029-.032.075-.1.104-.149.065-.111.241-.544.241-.593 0-.02.01-.047.023-.06.067-.072.229-.934.286-1.527.028-.289.02-1.613-.01-1.758a3.06 3.06 0 0 1-.03-.23c-.066-.683-.274-1.406-.517-1.796a.545.545 0 0 1-.059-.114c0-.01-.06-.1-.135-.199-.075-.099-.17-.226-.211-.283a2.284 2.284 0 0 0-.226-.243c-.146-.136-.459-.383-.486-.383a.875.875 0 0 1-.129-.078c-.176-.12-.564-.295-.866-.393-.267-.086-.703-.167-1.207-.223-.294-.032-1.53-.044-2.02-.019Zm11.697.009a1.508 1.508 0 0 1-.214.025 7.17 7.17 0 0 0-.37.04l-.269.038c-.236.033-.71.18-.921.287-.227.115-.653.423-.782.567-.13.143-.403.661-.454.86a5.74 5.74 0 0 0-.131.828c-.028.344-.021 6.973.007 7 .026.026 2.282.03 2.308.004.01-.01.027-1.507.038-3.325.01-1.818.026-3.346.035-3.395.037-.2.125-.449.186-.528.084-.11.272-.245.417-.298.295-.108.623-.142 1.266-.13.78.016.988.06 1.232.26.232.192.3.346.333.747.012.162.026 1.692.029 3.401.003 1.71.012 3.144.02 3.188.014.075.023.082.134.093.198.02 2.172.007 2.193-.014.01-.01.022-1.49.026-3.286.005-1.797.014-3.331.02-3.41a2 2 0 0 1 .055-.294 7.63 7.63 0 0 0 .055-.208c.022-.094.247-.298.382-.347.408-.146 1.456-.182 2.077-.07.37.065.677.277.753.519.125.397.128.488.144 3.885.008 1.753.024 3.197.035 3.209.033.033 2.166.044 2.25.011l.072-.028-.011-3.42a221.585 221.585 0 0 0-.027-3.561c-.073-.654-.145-.927-.335-1.267a2.15 2.15 0 0 0-.72-.754c-.781-.507-1.465-.652-2.976-.63-.429.006-.82.017-.87.025-.049.008-.146.02-.217.028a5.775 5.775 0 0 0-1.023.214 3.801 3.801 0 0 0-.346.158c-.248.125-.281.135-.46.137-.179.003-.207-.005-.447-.12-.395-.191-.671-.274-1.176-.352-.584-.091-.713-.1-1.5-.098-.445 0-.813.005-.818.01Zm-38.18.12c-.097.02-.174.09-.242.218a.713.713 0 0 1-.066.11 1.72 1.72 0 0 0-.103.14 3.616 3.616 0 0 1-.291.374 2.128 2.128 0 0 0-.27.375c-.032.06-.069.108-.08.108-.012 0-.021.015-.021.033 0 .018-.023.05-.051.07-.028.02-.051.05-.051.067 0 .016-.018.036-.039.044s-.038.032-.038.052c0 .02-.009.04-.02.046-.039.017-.492.588-.492.62 0 .008-.02.037-.044.064a1.823 1.823 0 0 0-.072.083c-.16.208-.295.388-.367.494-.103.15-.265.314-.276.28a5.22 5.22 0 0 0-.214-.305 33.625 33.625 0 0 1-.459-.638 3.365 3.365 0 0 0-.143-.183 4.157 4.157 0 0 1-.23-.317 2.308 2.308 0 0 0-.152-.218 5.333 5.333 0 0 1-.23-.307c-.111-.154-.26-.356-.333-.447a6.041 6.041 0 0 1-.217-.294c-.047-.07-.101-.143-.12-.162-.062-.064-.188-.26-.168-.262.011-.001-.003-.012-.03-.024-.029-.012-.674-.023-1.434-.024-1.099-.001-1.392.005-1.428.032-.041.03-.043.046-.016.147.037.134.063.173.387.574.136.169.297.372.359.452.06.08.203.26.316.4.112.14.227.287.255.326.028.04.07.09.091.112.078.078.302.35.437.529.075.1.233.295.35.434.254.303.257.306.336.42.034.049.069.095.077.102.007.007.048.059.09.115.04.056.087.115.102.13.014.016.06.072.101.124.041.053.109.132.15.177.043.044.124.144.181.221.058.078.111.146.119.154l.147.174c.114.14.13.169.102.206-.154.21-.346.453-.443.556a2.16 2.16 0 0 0-.16.189 1.706 1.706 0 0 1-.085.115 4.608 4.608 0 0 0-.278.356.312.312 0 0 1-.057.072 5.142 5.142 0 0 0-.296.357c-.02.026-.074.09-.122.143a.461.461 0 0 0-.087.116c0 .011-.015.035-.032.053a2.047 2.047 0 0 0-.109.13c-.11.14-.223.275-.27.32a3.1 3.1 0 0 0-.175.218c-.145.191-.29.368-.375.457a.382.382 0 0 0-.07.099c-.009.024-.028.044-.043.044-.014 0-.026.018-.026.039s-.01.038-.02.038c-.011 0-.04.035-.066.078a.992.992 0 0 1-.101.138c-.03.033-.09.103-.13.155a4.905 4.905 0 0 1-.142.168c-.036.04-.111.139-.168.218-.056.08-.128.173-.16.207-.031.034-.057.072-.057.086 0 .013-.01.024-.02.024-.038 0-.108.149-.108.229 0 .059.015.086.058.103.032.013.666.02 1.434.018 1.34-.004 1.378-.006 1.414-.055.02-.028.09-.11.155-.184a3.3 3.3 0 0 0 .197-.245c.074-.106.264-.361.338-.452l.157-.194c.069-.084.204-.262.3-.396.097-.134.19-.255.208-.269.029-.022.093-.1.228-.28.19-.254.332-.438.344-.448.009-.008.08-.105.158-.218.158-.227.306-.396.345-.396.015 0 .064.059.111.131.047.072.153.217.236.322.083.104.227.301.32.437.17.251.25.36.334.452.068.076.261.341.261.358 0 .009.05.081.109.161.06.08.132.181.161.224.03.042.072.1.095.128.104.127.216.272.275.357.035.05.076.106.09.123.058.066.191.271.191.295 0 .014.035.055.078.091l.08.066H43.7c.741 0 1.372-.007 1.402-.015.043-.012.058-.038.066-.118.005-.063-.004-.117-.023-.137-.019-.018-.034-.039-.034-.046a.515.515 0 0 0-.083-.098.8.8 0 0 1-.122-.159 2.172 2.172 0 0 0-.204-.268 7.301 7.301 0 0 1-.243-.297 9.237 9.237 0 0 0-.478-.596c-.011-.005-.02-.023-.02-.041 0-.018-.025-.054-.054-.081a2.718 2.718 0 0 1-.2-.24 31.615 31.615 0 0 0-.538-.691 20.897 20.897 0 0 1-.3-.384 3.886 3.886 0 0 0-.161-.204c-.02-.017-.312-.4-.346-.455a.797.797 0 0 0-.08-.099c-.071-.074-.29-.359-.29-.377a.307.307 0 0 0-.058-.075c-.205-.22-.352-.431-.352-.505 0-.03.027-.063.064-.08.035-.016.064-.038.064-.05 0-.012.029-.047.063-.077.035-.03.095-.102.134-.16.104-.154.23-.315.386-.488.164-.183.176-.197.288-.345.048-.064.096-.121.105-.128.009-.007.067-.082.13-.166.062-.085.158-.207.213-.272a9.43 9.43 0 0 0 .299-.368c.066-.084.136-.17.155-.192.02-.02.097-.119.172-.217.076-.098.2-.254.275-.345l.177-.218c.022-.028.088-.104.145-.17.058-.065.117-.134.13-.153l.102-.137c.085-.115.289-.36.484-.583.136-.155.216-.314.219-.432 0-.059-.012-.072-.082-.084-.12-.02-2.636-.03-2.73-.01Zm5.45.044c-.034.063-.027 9.449.007 9.482.028.028 2.308.028 2.335 0 .026-.025.022-9.475-.003-9.5-.01-.01-.534-.021-1.165-.025-1.125-.008-1.148-.007-1.174.043Zm46.93-.025c-.06.01-.092.032-.1.066-.007.028-.013 2.148-.015 4.711-.003 4.298 0 4.664.04 4.703.036.037.156.043 1.01.055.532.008 1.045.005 1.14-.005l.173-.018v-9.503l-.144-.017c-.174-.02-1.982-.014-2.105.008Zm-24.395 1.82c.735.076 1.22.268 1.531.608.375.409.477.785.51 1.87.04 1.376-.045 2.148-.28 2.532-.148.244-.51.553-.807.69-.424.194-.742.244-1.56.244-.645 0-.825-.02-1.25-.137a1.967 1.967 0 0 1-.86-.49c-.135-.134-.308-.455-.374-.69a6.12 6.12 0 0 1-.189-1.512c.002-1.113.099-1.727.341-2.175.11-.203.373-.509.493-.573a8.63 8.63 0 0 1 .419-.212 4.57 4.57 0 0 1 .665-.156c.217-.03 1.067-.03 1.36 0Zm-11.31 3.428c.162.011.323.027.358.034.035.008.162.021.282.03a5.604 5.604 0 0 1 .34.033c.024.003 0 .72-.037 1.073-.029.277-.115.593-.2.73-.109.176-.422.395-.62.434-.032.007-.11.03-.174.054-.215.08-.704.112-1.56.103a15.954 15.954 0 0 1-.908-.024c-.322-.053-.64-.153-.819-.257-.124-.073-.323-.319-.408-.505-.11-.243-.14-.77-.05-.943.038-.074.188-.272.282-.373.09-.095.497-.253.748-.29.22-.033.774-.098.938-.11.234-.017 1.53-.01 1.828.011Z" fill="#89898A"/><path d="M14.982 20.022c-.007.006-.27.017-.587.026-2.024.057-4.142.386-5.473.849-1.316.458-2.35 1.098-3.223 1.997a7.14 7.14 0 0 0-1.299 1.82c-.577 1.135-.87 2.272-1.14 4.443-.194 1.552-.26 2.676-.256 4.36a32.37 32.37 0 0 0 .524 5.818c.268 1.484.786 2.67 1.643 3.762.272.348.297.376.6.685a8.106 8.106 0 0 0 3.905 2.225c.776.194 1.966.368 3.057.449 1.048.077 2.485.117 4.283.117 3.617 0 5.888-.374 7.698-1.266a7.4 7.4 0 0 0 2.062-1.481c.925-.926 1.502-1.875 1.941-3.2.49-1.476.7-2.779.756-4.705.01-.317.02-.582.025-.59.015-.027.05-1.788.05-2.543 0-1.698-.077-2.958-.257-4.2-.232-1.604-.528-2.671-1.021-3.677a7.282 7.282 0 0 0-1.556-2.152 7.825 7.825 0 0 0-2.077-1.442c-1.38-.675-2.88-1.036-4.77-1.149a57.192 57.192 0 0 0-1.508-.077 120.24 120.24 0 0 1-.895-.04c-.34-.017-2.467-.042-2.482-.029Zm2.383 8.343c.66.109 1.228.415 1.704.917.32.34.529.686.67 1.115.131.404.129.308.129 4.453 0 3.824 0 3.859-.051 3.91-.05.05-.086.05-1.212.05-1.068 0-1.165-.003-1.215-.044l-.054-.045-.007-3.427c-.007-3.218-.01-3.436-.054-3.58a1.695 1.695 0 0 0-1.167-1.153c-.153-.042-.37-.046-2.723-.049-1.407-.001-2.588.007-2.624.019a.183.183 0 0 0-.096.086c-.022.046-.03 1.132-.03 4.077 0 3.98 0 4.015-.05 4.066-.05.05-.086.05-1.21.05-1.006 0-1.165-.004-1.215-.04l-.056-.039V33.58c0-5.122 0-5.152.05-5.203.052-.05.081-.051 4.521-.05 3.747.002 4.505.008 4.69.039Zm7.018.023.063.063v10.225l-.053.067-.053.068h-2.346l-.053-.068-.053-.067V28.451l.063-.063.063-.063h2.306l.063.063Zm-9.114 4.02c.045.04.047.173.047 3.172 0 3.094-.001 3.129-.052 3.18-.05.05-.085.05-1.278.05-1.194 0-1.23 0-1.279-.05-.05-.051-.051-.086-.051-3.172 0-3.086 0-3.12.051-3.17.05-.05.085-.052 1.283-.052 1.11 0 1.237.004 1.279.042Z" fill="#000"/><path d="M14.982 20.022c-.007.006-.27.017-.587.026-2.024.057-4.142.386-5.473.849-1.316.458-2.35 1.098-3.223 1.997a7.14 7.14 0 0 0-1.299 1.82c-.577 1.135-.87 2.272-1.14 4.443-.194 1.552-.26 2.676-.256 4.36a32.37 32.37 0 0 0 .524 5.818c.268 1.484.786 2.67 1.643 3.762.272.348.297.376.6.685a8.106 8.106 0 0 0 3.905 2.225c.776.194 1.966.368 3.057.449 1.048.077 2.485.117 4.283.117 3.617 0 5.888-.374 7.698-1.266a7.4 7.4 0 0 0 2.062-1.481c.925-.926 1.502-1.875 1.941-3.2.49-1.476.7-2.779.756-4.705.01-.317.02-.582.025-.59.015-.027.05-1.788.05-2.543 0-1.698-.077-2.958-.257-4.2-.232-1.604-.528-2.671-1.021-3.677a7.282 7.282 0 0 0-1.556-2.152 7.825 7.825 0 0 0-2.077-1.442c-1.38-.675-2.88-1.036-4.77-1.149a57.192 57.192 0 0 0-1.508-.077 120.24 120.24 0 0 1-.895-.04c-.34-.017-2.467-.042-2.482-.029Zm2.383 8.343c.66.109 1.228.415 1.704.917.32.34.529.686.67 1.115.131.404.129.308.129 4.453 0 3.824 0 3.859-.051 3.91-.05.05-.086.05-1.212.05-1.068 0-1.165-.003-1.215-.044l-.054-.045-.007-3.427c-.007-3.218-.01-3.436-.054-3.58a1.695 1.695 0 0 0-1.167-1.153c-.153-.042-.37-.046-2.723-.049-1.407-.001-2.588.007-2.624.019a.183.183 0 0 0-.096.086c-.022.046-.03 1.132-.03 4.077 0 3.98 0 4.015-.05 4.066-.05.05-.086.05-1.21.05-1.006 0-1.165-.004-1.215-.04l-.056-.039V33.58c0-5.122 0-5.152.05-5.203.052-.05.081-.051 4.521-.05 3.747.002 4.505.008 4.69.039Zm7.018.023.063.063v10.225l-.053.067-.053.068h-2.346l-.053-.068-.053-.067V28.451l.063-.063.063-.063h2.306l.063.063Zm-9.114 4.02c.045.04.047.173.047 3.172 0 3.094-.001 3.129-.052 3.18-.05.05-.085.05-1.278.05-1.194 0-1.23 0-1.279-.05-.05-.051-.051-.086-.051-3.172 0-3.086 0-3.12.051-3.17.05-.05.085-.052 1.283-.052 1.11 0 1.237.004 1.279.042Z" fill="#FF6200"/></g><defs><clipPath id="a"><path fill="#fff" transform="translate(3 20)" d="M0 0h94v26.583H0z"/></clipPath></defs></svg>